<svg id="svg" fill="#000000" stroke="#000000" width="400" height="400" version="1.1" viewBox="144 144 512 512" xmlns="http://www.w3.org/2000/svg" stroke-width="7">
    <g id="IconSvg_bgCarrier" stroke-width="0"></g>
    <g id="IconSvg_tracerCarrier" stroke-linecap="round" stroke-linejoin="round" stroke="#CCCCCC" stroke-width="0">
      <g xmlns="http://www.w3.org/2000/svg">
  <path d="m402.52 194.39c-55.184 0-108.11 21.922-147.13 60.941-39.02 39.023-60.941 91.945-60.941 147.13 0 55.184 21.922 108.11 60.941 147.13 39.023 39.02 91.945 60.941 147.13 60.941 55.188 0 108.11-21.922 147.13-60.941 39.02-39.023 60.941-91.945 60.941-147.13-0.050782-55.168-21.992-108.06-61-147.07-39.012-39.008-91.902-60.949-147.07-61zm0 401.03c-51.176 0-100.25-20.328-136.44-56.516s-56.516-85.266-56.516-136.44 20.328-100.26 56.516-136.45 85.266-56.516 136.44-56.516c51.18 0 100.26 20.328 136.45 56.516s56.516 85.27 56.516 136.45c-0.054687 51.156-20.398 100.21-56.574 136.38-36.176 36.176-85.227 56.52-136.39 56.574z"></path>
  <path d="m419.29 334.86c10.512 0.039062 20.609-4.1016 28.062-11.508 7.457-7.4102 11.664-17.48 11.688-27.988 0.027343-10.512-4.125-20.602-11.543-28.051-7.418-7.4453-17.492-11.637-28.004-11.652-10.512-0.011719-20.598 4.1523-28.035 11.582-7.4375 7.4258-11.613 17.508-11.613 28.02 0.011719 10.473 4.168 20.512 11.559 27.934 7.3906 7.418 17.418 11.609 27.887 11.664zm0-64.035c6.5078-0.039062 12.762 2.5117 17.383 7.0898 4.6211 4.5781 7.2305 10.809 7.2539 17.312 0.023437 6.5039-2.543 12.754-7.1367 17.363-4.5898 4.6094-10.824 7.1992-17.332 7.207-6.5039 0.003906-12.742-2.582-17.34-7.1836-4.5977-4.6055-7.1758-10.848-7.1602-17.352 0.011718-6.4609 2.5781-12.652 7.1367-17.23 4.5547-4.5742 10.738-7.1641 17.195-7.207z"></path>
  <path d="m445.04 458.34c-1.6875-1.4648-3.9336-2.1094-6.1406-1.7617-2.207 0.35156-4.1445 1.6602-5.2969 3.5742-5.2344 8.1289-11.672 15.414-19.094 21.613l-1.9141 1.5625c0.30078-1.6133 0.75391-3.6289 1.4609-6.1445 5.6445-20.152 33.301-119.3 33.301-119.3v-0.003906c0.62109-2.2344 0.17969-4.6328-1.1992-6.5-1.375-1.8672-3.5352-3-5.8516-3.0703h-27.711c-0.53516-0.050782-1.0742-0.050782-1.6133 0l-67.711 14.863c-3.1719 0.71094-5.543 3.3633-5.8945 6.5977l-4.332 31.891c-0.29688 2.3555 0.52734 4.7148 2.2344 6.3711 1.7031 1.6523 4.0859 2.4102 6.4297 2.043l25.492-3.9805c-6.6016 18.539-18.895 53.305-22.672 67.207-4.0312 14.66-6.8516 44.336 8.1602 62.723l0.003906 0.003906c9.1367 10.637 22.73 16.379 36.727 15.516h5.2891c56.828-3.7773 72.5-67.461 72.648-68.113h0.003906c0.80078-2.8672-0.14453-5.9375-2.418-7.8594zm-51.34 77.688c-13.453 0.90625-23.277-2.418-29.32-10.078-11.133-13.602-8.3125-38.137-5.0391-49.172 5.0391-18.391 26.449-77.434 26.652-78.039 0.81641-2.3086 0.46484-4.8711-0.94922-6.8711-1.4102-2.0039-3.7031-3.1992-6.1523-3.2031h-1.1602l-28.113 4.7852 2.2148-16.625 61.766-13.402h16.629c-7.0547 25.191-26.047 93.457-30.633 109.68-2.8711 10.078-5.0391 21.41 2.7188 26.348s18.086-2.8711 21.867-5.9453c6.4844-5.3828 12.316-11.504 17.383-18.234l10.078 8.6133c-4.3359 12.848-19.5 49.676-57.941 52.145z"></path>
 </g>

      </g>
     <g id="IconSvg_iconCarrier">
      <g xmlns="http://www.w3.org/2000/svg">
  <path d="m402.52 194.39c-55.184 0-108.11 21.922-147.13 60.941-39.02 39.023-60.941 91.945-60.941 147.13 0 55.184 21.922 108.11 60.941 147.13 39.023 39.02 91.945 60.941 147.13 60.941 55.188 0 108.11-21.922 147.13-60.941 39.02-39.023 60.941-91.945 60.941-147.13-0.050782-55.168-21.992-108.06-61-147.07-39.012-39.008-91.902-60.949-147.07-61zm0 401.03c-51.176 0-100.25-20.328-136.44-56.516s-56.516-85.266-56.516-136.44 20.328-100.26 56.516-136.45 85.266-56.516 136.44-56.516c51.18 0 100.26 20.328 136.45 56.516s56.516 85.27 56.516 136.45c-0.054687 51.156-20.398 100.21-56.574 136.38-36.176 36.176-85.227 56.52-136.39 56.574z"></path>
  <path d="m419.29 334.86c10.512 0.039062 20.609-4.1016 28.062-11.508 7.457-7.4102 11.664-17.48 11.688-27.988 0.027343-10.512-4.125-20.602-11.543-28.051-7.418-7.4453-17.492-11.637-28.004-11.652-10.512-0.011719-20.598 4.1523-28.035 11.582-7.4375 7.4258-11.613 17.508-11.613 28.02 0.011719 10.473 4.168 20.512 11.559 27.934 7.3906 7.418 17.418 11.609 27.887 11.664zm0-64.035c6.5078-0.039062 12.762 2.5117 17.383 7.0898 4.6211 4.5781 7.2305 10.809 7.2539 17.312 0.023437 6.5039-2.543 12.754-7.1367 17.363-4.5898 4.6094-10.824 7.1992-17.332 7.207-6.5039 0.003906-12.742-2.582-17.34-7.1836-4.5977-4.6055-7.1758-10.848-7.1602-17.352 0.011718-6.4609 2.5781-12.652 7.1367-17.23 4.5547-4.5742 10.738-7.1641 17.195-7.207z"></path>
  <path d="m445.04 458.34c-1.6875-1.4648-3.9336-2.1094-6.1406-1.7617-2.207 0.35156-4.1445 1.6602-5.2969 3.5742-5.2344 8.1289-11.672 15.414-19.094 21.613l-1.9141 1.5625c0.30078-1.6133 0.75391-3.6289 1.4609-6.1445 5.6445-20.152 33.301-119.3 33.301-119.3v-0.003906c0.62109-2.2344 0.17969-4.6328-1.1992-6.5-1.375-1.8672-3.5352-3-5.8516-3.0703h-27.711c-0.53516-0.050782-1.0742-0.050782-1.6133 0l-67.711 14.863c-3.1719 0.71094-5.543 3.3633-5.8945 6.5977l-4.332 31.891c-0.29688 2.3555 0.52734 4.7148 2.2344 6.3711 1.7031 1.6523 4.0859 2.4102 6.4297 2.043l25.492-3.9805c-6.6016 18.539-18.895 53.305-22.672 67.207-4.0312 14.66-6.8516 44.336 8.1602 62.723l0.003906 0.003906c9.1367 10.637 22.73 16.379 36.727 15.516h5.2891c56.828-3.7773 72.5-67.461 72.648-68.113h0.003906c0.80078-2.8672-0.14453-5.9375-2.418-7.8594zm-51.34 77.688c-13.453 0.90625-23.277-2.418-29.32-10.078-11.133-13.602-8.3125-38.137-5.0391-49.172 5.0391-18.391 26.449-77.434 26.652-78.039 0.81641-2.3086 0.46484-4.8711-0.94922-6.8711-1.4102-2.0039-3.7031-3.1992-6.1523-3.2031h-1.1602l-28.113 4.7852 2.2148-16.625 61.766-13.402h16.629c-7.0547 25.191-26.047 93.457-30.633 109.68-2.8711 10.078-5.0391 21.41 2.7188 26.348s18.086-2.8711 21.867-5.9453c6.4844-5.3828 12.316-11.504 17.383-18.234l10.078 8.6133c-4.3359 12.848-19.5 49.676-57.941 52.145z"></path>
 </g>

      </g>
      </svg>