<svg id="svg" fill="#000000" stroke="#000000" width="200px" height="200px" version="1.1" viewBox="144 144 512 512" xmlns="http://www.w3.org/2000/svg">
    <g id="IconSvg_bgCarrier" stroke-width="0"></g>
    <g id="IconSvg_tracerCarrier" stroke-linecap="round" stroke-linejoin="round" stroke="#CCCCCC"></g>
     <g id="IconSvg_iconCarrier">
      <g xmlns="http://www.w3.org/2000/svg">
  <path d="m400 274.05c-20.879 0-40.902 8.293-55.664 23.055-14.766 14.766-23.059 34.785-23.059 55.664s8.293 40.902 23.059 55.664c14.762 14.762 34.785 23.059 55.664 23.059 20.875 0 40.898-8.2969 55.664-23.059 14.762-14.762 23.055-34.785 23.055-55.664-0.023438-20.871-8.3281-40.879-23.086-55.637-14.754-14.758-34.766-23.059-55.633-23.082zm0 125.95c-12.527 0-24.543-4.9766-33.398-13.836-8.8594-8.8555-13.836-20.871-13.836-33.398s4.9766-24.539 13.836-33.398c8.8555-8.8555 20.871-13.832 33.398-13.832 12.523 0 24.539 4.9766 33.398 13.832 8.8555 8.8594 13.832 20.871 13.832 33.398s-4.9766 24.543-13.832 33.398c-8.8594 8.8594-20.875 13.836-33.398 13.836z"></path>
  <path d="m400 195.32c-41.742 0.046875-81.762 16.648-111.28 46.164s-46.117 69.535-46.164 111.28c0 77.793 124.38 251.91 157.44 251.91s157.44-174.11 157.44-251.91c-0.042969-41.742-16.648-81.762-46.164-111.28-29.516-29.516-69.531-46.117-111.27-46.164zm0 375.2c-27.898-24.953-125.95-154.1-125.95-217.75 0-44.996 24.004-86.578 62.977-109.08 38.969-22.5 86.98-22.5 125.95 0 38.969 22.5 62.973 64.082 62.973 109.08 0 63.652-98.051 192.8-125.95 217.76z"></path>
 </g>

      </g>
      </svg>